<?xml version="1.0" standalone="no"?><!DOCTYPE svg PUBLIC "-//W3C//DTD SVG 1.1//EN" "http://www.w3.org/Graphics/SVG/1.1/DTD/svg11.dtd"><svg t="1688914321839" class="icon" viewBox="0 0 1024 1024" version="1.1" xmlns="http://www.w3.org/2000/svg" p-id="4413" xmlns:xlink="http://www.w3.org/1999/xlink" width="200" height="200"><path d="M955 125.6c-4.5-12.5-15.4-21.8-28.6-24.2-9.2-1.7-18.4 0.1-26.1 4.8L83.9 544.3c-12.8 6.8-20.6 20.6-19.8 35.1 0.8 14.3 9.9 27.3 23.2 32.9l238.5 97.9c12.4 5.2 26.8 3.4 37.5-4.9s16.1-21.3 14.4-34.8c-1.6-13.2-10.4-24.6-23-29.9l-165-67.7 573-307.3-357 421.9c-6.5 7.7-9.6 17.4-8.8 27.4L411.4 884c1.6 19.7 17.7 34.6 37.5 34.6 9.5 0 18.7-3.7 25.8-10.4l74-69.2 0.1-0.1c13.5-13.2 15.2-33.5 4.8-48.4l222.6 72c4 1.3 7.9 2 11.7 2 18.2 0 33.8-12.9 37-30.6l131.6-688.3h-0.1c1.4-6.6 0.9-13.5-1.4-20zM497.3 783.8L479.9 800l-6.5-75.9L856 271.6l-96.8 506.3L539 706.6c-19.7-6.4-41.1 4.4-47.5 24.2-5.8 17.9 2.5 37.1 18.9 45.4-4.7 1.5-9.2 4-13.1 7.6z" p-id="4414" fill="#e6e6e6"></path></svg>